<svg width="256" height="256" viewBox="0 0 256 256" fill="none" xmlns="http://www.w3.org/2000/svg">
<path fill-rule="evenodd" clip-rule="evenodd" d="M0 128V256H128H256V128V0H128H0V128ZM191.688 128V191.688H128H64.3122V128V64.3122H128H191.688V128ZM109.876 105.522C106.279 110.706 100.105 119.565 96.1561 125.21C83.2087 143.714 68.3807 165.036 67.8712 165.882C67.4647 166.559 69.213 166.712 77.3182 166.712H87.2642L92.8599 158.439L98.4551 150.166L109.169 149.995L119.883 149.824V158.268V166.712H131.746H143.61V152.976V139.239H151.034H158.457L165.257 152.82L172.056 166.4L179.686 166.575C183.884 166.672 187.317 166.566 187.317 166.34C187.317 166.114 186.228 163.928 184.898 161.482C183.567 159.035 181.284 154.786 179.824 152.039C178.365 149.292 176.082 145.043 174.751 142.596C173.421 140.15 172.332 137.998 172.332 137.813C172.332 137.628 173.589 136.868 175.127 136.124C178.193 134.64 180.399 132.326 182.508 128.385C183.73 126.1 183.883 124.878 183.883 117.385C183.883 110.126 183.701 108.566 182.57 106.146C180.832 102.427 178.381 100.068 174.205 98.0923L170.771 96.4683L143.594 96.2822L116.416 96.0962L109.876 105.522ZM166.371 110.152C169.671 111.531 170.65 113.548 170.345 118.336C169.903 125.271 168.093 126.089 153.132 126.112L143.61 126.127V117.698V109.268H153.932C161.425 109.268 164.835 109.511 166.371 110.152ZM120.917 136.54C120.785 136.673 117.3 136.702 113.174 136.605L105.672 136.429L110.872 128C113.731 123.364 117.139 117.794 118.445 115.621L120.82 111.672L120.989 123.985C121.082 130.757 121.05 136.407 120.917 136.54Z" fill="#141414"/>
</svg>
