<svg width="256" height="256" viewBox="0 0 256 256" fill="none" xmlns="http://www.w3.org/2000/svg">
<path fill-rule="evenodd" clip-rule="evenodd" d="M0 38.5V77H6.5H13V83.25V89.5H6.5H0V96V102.5H6.5H13V108.742V114.983L25.625 115.117L38.25 115.25L38.39 121.625L38.53 128H19.265H0V134.5V141H19.25H38.5V147.25V153.5H44.735H50.97L51.11 159.875L51.25 166.25L57.625 166.39L64 166.53V160.015V153.5H70.5H77V147.25V141H89.75H102.5V147.25V153.5H96H89.5V160V166.5H83.25H77V172.75V179H57.75H38.5V172.75V166.5H25.765H13.03L12.89 160.125L12.75 153.75L6.375 153.61L0 153.47V159.985V166.5H6.5H13V172.75V179H6.5H0V217.5V256H51.265H102.53L102.39 249.625L102.25 243.25L89.625 243.117L77 242.983V217.492V192H83.235H89.47L89.61 198.375L89.75 204.75L96.125 204.89L102.5 205.03V211.265V217.5H96H89.5V224V230.5H102.235H114.97L115.11 224.125L115.25 217.75L121.625 217.61L128 217.47V224V230.53L134.375 230.39L140.75 230.25V224V217.75L134.375 217.61L128 217.47V211.25V205.03L134.375 204.89L140.75 204.75L140.89 198.375L141.03 192H147.265H153.5V204.75V217.5H160H166.5V224V230.5H172.75H179V236.742V242.983L191.875 243.117L204.75 243.25L204.89 249.625L205.03 256H211.25H217.47L217.61 249.625L217.75 243.25L230.375 243.117L243 242.983V249.492V256H249.5H256V243.25V230.5H243.25H230.5V224V217.5H224H217.5V204.75V192H224H230.5V198.5V205H243.25H256V191.985V178.97L249.625 179.11L243.25 179.25L243.11 185.625L242.97 192H236.75H230.53L230.39 185.625L230.25 179.25L223.875 179.11L217.5 178.97V166.235V153.5H224H230.5V147.25V141H236.75H243V134.5V128H249.5H256V115.25V102.5H249.5H243V108.75V115H230.25H217.5V108.75V102.5H224H230.5V96V89.5H224H217.5V96V102.5H211.25H205V89.75V77H224H243V83.25V89.5H249.5H256V44.75V0H217.5H179V6.5V13H172.75H166.5V19.25V25.5H172.745H178.991L179.12 51.125L179.25 76.75L185.625 76.89L192 77.03V83.265V89.5H185.5H179V83.25V77H166.25H153.5V70.5V64H147.265H141.03L140.89 57.625L140.75 51.25L134.375 51.11L128 50.97V57.485V64H115.265H102.53L102.39 57.625L102.25 51.25L95.875 51.11L89.5 50.97V44.735V38.5H83.25H77V25.75V13H89.75H102.5V19.25V25.5H108.735H114.97L115.11 31.875L115.25 38.25L134.375 38.381L153.5 38.512V44.756V51H160H166.5V44.75V38.5H160H153.5V25.75V13H147.25H141V19.25V25.5H128H115V19.25V13H108.75H102.5V6.5V0H51.25H0V38.5ZM128 6.515V13.03L134.375 12.89L140.75 12.75L140.89 6.375L141.03 0H134.515H128V6.515ZM64 38.5V64H38.5H13V38.5V13H38.5H64V38.5ZM243 38.5V64H217.5H192V38.5V13H217.5H243V38.5ZM25.5 38.25V51H38.25H51V38.25V25.5H38.25H25.5V38.25ZM205 38.25V51H217.75H230.5V38.25V25.5H217.75H205V38.25ZM89.5 64V77H96H102.5V89.75V102.5H83.25H64V96V89.5H57.5H51V96V102.5H32H13V96V89.5H19.25H25.5V83.25V77H32H38.5V83.25V89.5H44.75H51V83.2585V77.017L63.875 76.8835L76.75 76.75L76.8835 63.875L77.017 51H83.2585H89.5V64ZM77 83.25V89.5H83.25H89.5V83.25V77H83.25H77V83.25ZM153.5 83.25V89.5H147.25H141V102.25V115H147.25H153.5V108.75V102.5H160H166.5V96V89.5H172.735H178.97L179.11 95.875L179.25 102.25L192.125 102.383L205 102.517V108.758V115H211.25H217.5V121.5V128H198.25H179V121.5V115H172.75H166.5V121.5V128H153.75H141V134.5V141H160H179V147.25V153.5H160H141V147.25V141H134.5H128V147.25V153.5H121.5H115V147.25V141H108.75H102.5V134.5V128H95.985H89.47L89.61 121.625L89.75 115.25L102.375 115.117L115 114.983V121.492V128H128.015H141.03L140.89 121.625L140.75 115.25L134.375 115.11L128 114.97V108.75V102.53L121.625 102.39L115.25 102.25L115.117 89.625L114.983 77H134.242H153.5V83.25ZM76.89 121.625L77.03 128H64.015H51V121.834C51 118.442 51.154 115.513 51.3415 115.325C51.5295 115.137 57.3235 115.043 64.2165 115.117L76.75 115.25L76.89 121.625ZM64 147.25V153.5H57.5H51V147.25V141H57.5H64V147.25ZM217.5 147.25V153.5H204.75H192V147.25V141H204.75H217.5V147.25ZM243.217 154.156C243.078 154.516 243.029 157.385 243.107 160.531L243.25 166.25L249.625 166.39L256 166.53V160.015V153.5H249.734C245.027 153.5 243.406 153.663 243.217 154.156ZM115 172.75V179H121.5H128V172.75V166.5H140.75H153.5V172.75V179H147.25H141V185.5V192H134.5H128V198.515V205.03L121.625 204.89L115.25 204.75L115.117 191.875L114.983 179H108.742H102.5V185.5V192H96H89.5V179.25V166.5H102.25H115V172.75ZM204.881 185.625L204.75 204.75L185.625 204.881L166.5 205.012V185.756V166.5H185.756H205.012L204.881 185.625ZM179.333 179.333C179.15 179.516 179 182.441 179 185.833V192H185.5H192V185.5V179H185.833C182.441 179 179.516 179.15 179.333 179.333ZM64 217.5V243H38.5H13V217.5V192H38.5H64V217.5ZM25.5 217.75V230.5H38.25H51V217.75V205H38.25H25.5V217.75ZM217.5 224V230.5H198.25H179V224.333C179 220.941 179.15 218.016 179.333 217.833C179.516 217.65 188.179 217.5 198.583 217.5H217.5V224ZM115.334 243.333C115.15 243.516 115 246.441 115 249.833V256H121.5H128V249.5V243H121.834C118.442 243 115.517 243.15 115.334 243.333ZM141 249.492V256H153.765H166.53L166.39 249.625L166.25 243.25L153.625 243.117L141 242.983V249.492Z" fill="#141414"/>
</svg>
